<?xml version="1.0" encoding="UTF-8" standalone="no"?>
<!DOCTYPE svg PUBLIC "-//W3C//DTD SVG 1.1//EN"
 "http://www.w3.org/Graphics/SVG/1.1/DTD/svg11.dtd">
<!-- Generated by graphviz version 2.43.0 (0)
 -->
<!-- Title: TxContext Pages: 1 -->
<svg width="1357pt" height="569pt"
 viewBox="0.00 0.00 1357.00 569.00" xmlns="http://www.w3.org/2000/svg" xmlns:xlink="http://www.w3.org/1999/xlink">
<g id="graph0" class="graph" transform="scale(1 1) rotate(0) translate(4 565)">
<title>TxContext</title>
<polygon fill="white" stroke="transparent" points="-4,4 -4,-565 1353,-565 1353,4 -4,4"/>
<!-- root -->
<g id="node1" class="node">
<title>root</title>
<path fill="#fce6a8" stroke="#c9a227" d="M934,-561C934,-561 813,-561 813,-561 807,-561 801,-555 801,-549 801,-549 801,-537 801,-537 801,-531 807,-525 813,-525 813,-525 934,-525 934,-525 940,-525 946,-531 946,-537 946,-537 946,-549 946,-549 946,-555 940,-561 934,-561"/>
<text text-anchor="middle" x="873.5" y="-540.2" font-family="Helvetica,sans-Serif" font-size="11.00">Full transaction context</text>
</g>
<!-- ledger -->
<g id="node2" class="node">
<title>ledger</title>
<path fill="#fce6a8" stroke="#c9a227" d="M850.5,-469C850.5,-469 790.5,-469 790.5,-469 784.5,-469 778.5,-463 778.5,-457 778.5,-457 778.5,-445 778.5,-445 778.5,-439 784.5,-433 790.5,-433 790.5,-433 850.5,-433 850.5,-433 856.5,-433 862.5,-439 862.5,-445 862.5,-445 862.5,-457 862.5,-457 862.5,-463 856.5,-469 850.5,-469"/>
<text text-anchor="middle" x="820.5" y="-448.2" font-family="Helvetica,sans-Serif" font-size="11.00">Ledger state</text>
</g>
<!-- root&#45;&gt;ledger -->
<g id="edge1" class="edge">
<title>root&#45;&gt;ledger</title>
<path fill="none" stroke="#555555" d="M863.28,-524.65C855.07,-510.7 843.45,-490.97 834.39,-475.59"/>
<polygon fill="#555555" stroke="#555555" points="836.35,-474.09 830.69,-469.3 832.13,-476.57 836.35,-474.09"/>
<text text-anchor="middle" x="853.5" y="-494.2" font-family="Helvetica,sans-Serif" font-weight="bold" font-size="11.00" fill="#1f5fcc">1</text>
</g>
<!-- tx -->
<g id="node11" class="node">
<title>tx</title>
<path fill="#fce6a8" stroke="#c9a227" d="M1080.5,-469C1080.5,-469 1026.5,-469 1026.5,-469 1020.5,-469 1014.5,-463 1014.5,-457 1014.5,-457 1014.5,-445 1014.5,-445 1014.5,-439 1020.5,-433 1026.5,-433 1026.5,-433 1080.5,-433 1080.5,-433 1086.5,-433 1092.5,-439 1092.5,-445 1092.5,-445 1092.5,-457 1092.5,-457 1092.5,-463 1086.5,-469 1080.5,-469"/>
<text text-anchor="middle" x="1053.5" y="-448.2" font-family="Helvetica,sans-Serif" font-size="11.00">Transaction</text>
</g>
<!-- root&#45;&gt;tx -->
<g id="edge10" class="edge">
<title>root&#45;&gt;tx</title>
<path fill="none" stroke="#555555" d="M907.78,-524.86C937.68,-509.91 981.11,-488.19 1012.78,-472.36"/>
<polygon fill="#555555" stroke="#555555" points="1014.18,-474.4 1019.35,-469.08 1011.99,-470.02 1014.18,-474.4"/>
<text text-anchor="middle" x="977.5" y="-494.2" font-family="Helvetica,sans-Serif" font-weight="bold" font-size="11.00" fill="#1f5fcc">0</text>
</g>
<!-- consumed -->
<g id="node3" class="node">
<title>consumed</title>
<path fill="#fce6a8" stroke="#c9a227" d="M353.5,-298.5C353.5,-298.5 259.5,-298.5 259.5,-298.5 253.5,-298.5 247.5,-292.5 247.5,-286.5 247.5,-286.5 247.5,-274.5 247.5,-274.5 247.5,-268.5 253.5,-262.5 259.5,-262.5 259.5,-262.5 353.5,-262.5 353.5,-262.5 359.5,-262.5 365.5,-268.5 365.5,-274.5 365.5,-274.5 365.5,-286.5 365.5,-286.5 365.5,-292.5 359.5,-298.5 353.5,-298.5"/>
<text text-anchor="middle" x="306.5" y="-277.7" font-family="Helvetica,sans-Serif" font-size="11.00">Consumed outputs</text>
</g>
<!-- ledger&#45;&gt;consumed -->
<g id="edge2" class="edge">
<title>ledger&#45;&gt;consumed</title>
<path fill="none" stroke="#555555" d="M778.12,-441.51C721.1,-429.59 616.85,-406.08 530.5,-377 465.39,-355.08 392.68,-322.5 348.25,-301.64"/>
<polygon fill="#555555" stroke="#555555" points="349.29,-299.41 341.91,-298.64 347.2,-303.85 349.29,-299.41"/>
<text text-anchor="middle" x="644.5" y="-402.2" font-family="Helvetica,sans-Serif" font-weight="bold" font-size="11.00" fill="#1f5fcc">0</text>
</g>
<!-- cux0 -->
<g id="node4" class="node">
<title>cux0</title>
<path fill="#fce6a8" stroke="#c9a227" d="M192.5,-128C192.5,-128 162.5,-128 162.5,-128 156.5,-128 150.5,-122 150.5,-116 150.5,-116 150.5,-104 150.5,-104 150.5,-98 156.5,-92 162.5,-92 162.5,-92 192.5,-92 192.5,-92 198.5,-92 204.5,-98 204.5,-104 204.5,-104 204.5,-116 204.5,-116 204.5,-122 198.5,-128 192.5,-128"/>
<text text-anchor="middle" x="177.5" y="-107.2" font-family="Helvetica,sans-Serif" font-size="11.00">UTXO</text>
</g>
<!-- consumed&#45;&gt;cux0 -->
<g id="edge3" class="edge">
<title>consumed&#45;&gt;cux0</title>
<path fill="none" stroke="#555555" d="M293.42,-262.42C270.05,-231.89 221.11,-167.97 194.92,-133.76"/>
<polygon fill="#555555" stroke="#555555" points="196.81,-132.2 190.61,-128.13 192.92,-135.18 196.81,-132.2"/>
<text text-anchor="middle" x="220.5" y="-153.2" font-family="Helvetica,sans-Serif" font-weight="bold" font-size="11.00" fill="#1f5fcc">0</text>
</g>
<!-- cux1 -->
<g id="node5" class="node">
<title>cux1</title>
<path fill="#fce6a8" stroke="#c9a227" d="M271.5,-128C271.5,-128 241.5,-128 241.5,-128 235.5,-128 229.5,-122 229.5,-116 229.5,-116 229.5,-104 229.5,-104 229.5,-98 235.5,-92 241.5,-92 241.5,-92 271.5,-92 271.5,-92 277.5,-92 283.5,-98 283.5,-104 283.5,-104 283.5,-116 283.5,-116 283.5,-122 277.5,-128 271.5,-128"/>
<text text-anchor="middle" x="256.5" y="-107.2" font-family="Helvetica,sans-Serif" font-size="11.00">UTXO</text>
</g>
<!-- consumed&#45;&gt;cux1 -->
<g id="edge4" class="edge">
<title>consumed&#45;&gt;cux1</title>
<path fill="none" stroke="#555555" d="M301.43,-262.42C292.48,-232.27 273.87,-169.55 263.63,-135.04"/>
<polygon fill="#555555" stroke="#555555" points="265.92,-134.14 261.58,-128.13 261.23,-135.54 265.92,-134.14"/>
<text text-anchor="middle" x="275.5" y="-153.2" font-family="Helvetica,sans-Serif" font-weight="bold" font-size="11.00" fill="#1f5fcc">1</text>
</g>
<!-- cuxN -->
<g id="node6" class="node">
<title>cuxN</title>
<text text-anchor="middle" x="335.5" y="-107.2" font-family="Helvetica,sans-Serif" font-size="11.00">...</text>
</g>
<!-- consumed&#45;&gt;cuxN -->
<g id="edge5" class="edge">
<title>consumed&#45;&gt;cuxN</title>
<path fill="none" stroke="#aaaaaa" d="M309.44,-262.42C315,-230.12 326.99,-160.46 332.55,-128.13"/>
<text text-anchor="middle" x="331.5" y="-153.2" font-family="Helvetica,sans-Serif" font-weight="bold" font-size="11.00" fill="#1f5fcc">n</text>
</g>
<!-- c_amounts -->
<g id="node7" class="node">
<title>c_amounts</title>
<path fill="#fce6a8" stroke="#c9a227" d="M51,-36C51,-36 12,-36 12,-36 6,-36 0,-30 0,-24 0,-24 0,-12 0,-12 0,-6 6,0 12,0 12,0 51,0 51,0 57,0 63,-6 63,-12 63,-12 63,-24 63,-24 63,-30 57,-36 51,-36"/>
<text text-anchor="middle" x="31.5" y="-15.2" font-family="Helvetica,sans-Serif" font-size="11.00">amounts</text>
</g>
<!-- cux0&#45;&gt;c_amounts -->
<g id="edge6" class="edge">
<title>cux0&#45;&gt;c_amounts</title>
<path fill="none" stroke="#555555" d="M150.38,-92.28C126.41,-77.51 91.34,-55.88 65.49,-39.96"/>
<polygon fill="#555555" stroke="#555555" points="66.71,-37.83 59.47,-36.24 64.14,-42 66.71,-37.83"/>
<text text-anchor="middle" x="117.5" y="-61.2" font-family="Helvetica,sans-Serif" font-weight="bold" font-size="11.00" fill="#1f5fcc">0</text>
</g>
<!-- c_idxval -->
<g id="node8" class="node">
<title>c_idxval</title>
<path fill="#fce6a8" stroke="#c9a227" d="M160.5,-36C160.5,-36 100.5,-36 100.5,-36 94.5,-36 88.5,-30 88.5,-24 88.5,-24 88.5,-12 88.5,-12 88.5,-6 94.5,0 100.5,0 100.5,0 160.5,0 160.5,0 166.5,0 172.5,-6 172.5,-12 172.5,-12 172.5,-24 172.5,-24 172.5,-30 166.5,-36 160.5,-36"/>
<text text-anchor="middle" x="130.5" y="-15.2" font-family="Helvetica,sans-Serif" font-size="11.00">index&#45;values</text>
</g>
<!-- cux0&#45;&gt;c_idxval -->
<g id="edge7" class="edge">
<title>cux0&#45;&gt;c_idxval</title>
<path fill="none" stroke="#555555" d="M168.44,-91.65C161.16,-77.7 150.85,-57.97 142.82,-42.59"/>
<polygon fill="#555555" stroke="#555555" points="144.95,-41.37 139.53,-36.3 140.6,-43.64 144.95,-41.37"/>
<text text-anchor="middle" x="161.5" y="-61.2" font-family="Helvetica,sans-Serif" font-weight="bold" font-size="11.00" fill="#1f5fcc">1</text>
</g>
<!-- c_lock -->
<g id="node9" class="node">
<title>c_lock</title>
<polygon fill="white" stroke="#cc0000" stroke-width="1.6" points="251.5,-36 197.5,-36 197.5,0 251.5,0 251.5,-36"/>
<text text-anchor="middle" x="224.5" y="-15.2" font-family="Helvetica,sans-Serif" font-size="11.00">lock</text>
</g>
<!-- cux0&#45;&gt;c_lock -->
<g id="edge8" class="edge">
<title>cux0&#45;&gt;c_lock</title>
<path fill="none" stroke="#555555" d="M186.56,-91.65C193.84,-77.7 204.15,-57.97 212.18,-42.59"/>
<polygon fill="#555555" stroke="#555555" points="214.4,-43.64 215.47,-36.3 210.05,-41.37 214.4,-43.64"/>
<text text-anchor="middle" x="208.5" y="-61.2" font-family="Helvetica,sans-Serif" font-weight="bold" font-size="11.00" fill="#1f5fcc">2</text>
</g>
<!-- c_cstr -->
<g id="node10" class="node">
<title>c_cstr</title>
<polygon fill="white" stroke="#cc0000" stroke-width="1.6" points="346.5,-36 276.5,-36 276.5,0 346.5,0 346.5,-36"/>
<text text-anchor="middle" x="311.5" y="-15.2" font-family="Helvetica,sans-Serif" font-size="11.00">constraint</text>
</g>
<!-- cux0&#45;&gt;c_cstr -->
<g id="edge9" class="edge">
<title>cux0&#45;&gt;c_cstr</title>
<path fill="none" stroke="#555555" d="M203.02,-91.86C224.91,-77.16 256.53,-55.92 279.99,-40.16"/>
<polygon fill="#555555" stroke="#555555" points="281.63,-42.01 286.08,-36.08 278.9,-37.95 281.63,-42.01"/>
<text text-anchor="middle" x="262" y="-61.2" font-family="Helvetica,sans-Serif" font-weight="bold" font-size="11.00" fill="#1f5fcc">3+</text>
</g>
<!-- terminals -->
<g id="node13" class="node">
<title>terminals</title>
<polygon fill="#dedede" stroke="transparent" points="1224.5,-345.5 1224.5,-369.5 1338.5,-369.5 1338.5,-345.5 1224.5,-345.5"/>
<polygon fill="none" stroke="#808080" points="1224.5,-345.5 1224.5,-369.5 1338.5,-369.5 1338.5,-345.5 1224.5,-345.5"/>
<text text-anchor="start" x="1261" y="-354.7" font-family="Helvetica,sans-Serif" font-size="11.00">Version</text>
<polygon fill="#dedede" stroke="transparent" points="1224.5,-314.5 1224.5,-338.5 1338.5,-338.5 1338.5,-314.5 1224.5,-314.5"/>
<polygon fill="none" stroke="#808080" points="1224.5,-314.5 1224.5,-338.5 1338.5,-338.5 1338.5,-314.5 1224.5,-314.5"/>
<text text-anchor="start" x="1250.5" y="-323.7" font-family="Helvetica,sans-Serif" font-size="11.00">Timestamp</text>
<polygon fill="#dedede" stroke="transparent" points="1224.5,-283.5 1224.5,-307.5 1338.5,-307.5 1338.5,-283.5 1224.5,-283.5"/>
<polygon fill="none" stroke="#808080" points="1224.5,-283.5 1224.5,-307.5 1338.5,-307.5 1338.5,-283.5 1224.5,-283.5"/>
<text text-anchor="start" x="1238" y="-292.7" font-family="Helvetica,sans-Serif" font-size="11.00">Sequencer data</text>
<polygon fill="#dedede" stroke="transparent" points="1224.5,-252.5 1224.5,-276.5 1338.5,-276.5 1338.5,-252.5 1224.5,-252.5"/>
<polygon fill="none" stroke="#808080" points="1224.5,-252.5 1224.5,-276.5 1338.5,-276.5 1338.5,-252.5 1224.5,-252.5"/>
<text text-anchor="start" x="1255" y="-261.7" font-family="Helvetica,sans-Serif" font-size="11.00">Signature</text>
<polygon fill="#dedede" stroke="transparent" points="1224.5,-221.5 1224.5,-245.5 1338.5,-245.5 1338.5,-221.5 1224.5,-221.5"/>
<polygon fill="none" stroke="#808080" points="1224.5,-221.5 1224.5,-245.5 1338.5,-245.5 1338.5,-221.5 1224.5,-221.5"/>
<text text-anchor="start" x="1230.5" y="-230.7" font-family="Helvetica,sans-Serif" font-size="11.00">Input commitment</text>
<polygon fill="#dedede" stroke="transparent" points="1224.5,-190.5 1224.5,-214.5 1338.5,-214.5 1338.5,-190.5 1224.5,-190.5"/>
<polygon fill="none" stroke="#808080" points="1224.5,-190.5 1224.5,-214.5 1338.5,-214.5 1338.5,-190.5 1224.5,-190.5"/>
<text text-anchor="start" x="1236.5" y="-199.7" font-family="Helvetica,sans-Serif" font-size="11.00">Explicit baseline</text>
</g>
<!-- tx&#45;&gt;terminals -->
<g id="edge16" class="edge">
<title>tx&#45;&gt;terminals:w</title>
<path fill="none" stroke="#555555" d="M1057.6,-432.69C1061.2,-421.35 1067.62,-407.17 1078.5,-399 1123.96,-364.87 1154.23,-403.53 1204.5,-377 1212.36,-372.85 1212.4,-364.28 1216.65,-360.02"/>
<polygon fill="#555555" stroke="#555555" points="1217.78,-362.22 1223.5,-357.5 1216.08,-357.62 1217.78,-362.22"/>
<text text-anchor="middle" x="1082.5" y="-402.2" font-family="Helvetica,sans-Serif" font-weight="bold" font-size="11.00" fill="#1f5fcc">0</text>
</g>
<!-- tx&#45;&gt;terminals -->
<g id="edge17" class="edge">
<title>tx&#45;&gt;terminals:w</title>
<path fill="none" stroke="#555555" d="M1070.5,-432.76C1082.42,-421.61 1099.25,-407.61 1116.5,-399 1152.57,-381 1174.4,-403.82 1204.5,-377 1220.16,-363.04 1204.6,-334.85 1216.53,-328.02"/>
<polygon fill="#555555" stroke="#555555" points="1217.18,-330.38 1223.5,-326.5 1216.14,-325.59 1217.18,-330.38"/>
<text text-anchor="middle" x="1120.5" y="-402.2" font-family="Helvetica,sans-Serif" font-weight="bold" font-size="11.00" fill="#1f5fcc">1</text>
</g>
<!-- tx&#45;&gt;terminals -->
<g id="edge18" class="edge">
<title>tx&#45;&gt;terminals:w</title>
<path fill="none" stroke="#555555" d="M1086.49,-432.79C1106.12,-422.68 1131.59,-409.82 1154.5,-399 1176.45,-388.64 1189,-395.68 1204.5,-377 1226.49,-350.5 1192.17,-303.22 1216.47,-296.34"/>
<polygon fill="#555555" stroke="#555555" points="1216.84,-298.77 1223.5,-295.5 1216.26,-293.9 1216.84,-298.77"/>
<text text-anchor="middle" x="1158.5" y="-402.2" font-family="Helvetica,sans-Serif" font-weight="bold" font-size="11.00" fill="#1f5fcc">2</text>
</g>
<!-- tx&#45;&gt;terminals -->
<g id="edge19" class="edge">
<title>tx&#45;&gt;terminals:w</title>
<path fill="none" stroke="#555555" d="M1092.69,-437.32C1118.37,-428.73 1149.35,-417.76 1161.5,-411 1182.79,-399.15 1192.09,-397.96 1204.5,-377 1216,-357.57 1201.98,-283.51 1216.68,-267.55"/>
<polygon fill="#555555" stroke="#555555" points="1218.11,-269.59 1223.5,-264.5 1216.11,-265.12 1218.11,-269.59"/>
<text text-anchor="middle" x="1186.5" y="-402.2" font-family="Helvetica,sans-Serif" font-weight="bold" font-size="11.00" fill="#1f5fcc">3</text>
</g>
<!-- tx&#45;&gt;terminals -->
<g id="edge20" class="edge">
<title>tx&#45;&gt;terminals:w</title>
<path fill="none" stroke="#555555" d="M1092.58,-436.86C1096.93,-435.51 1101.3,-434.19 1105.5,-433 1145.53,-421.64 1167.17,-440.51 1196.5,-411 1222.76,-384.58 1188.75,-252.78 1216.58,-235.39"/>
<polygon fill="#555555" stroke="#555555" points="1217.4,-237.71 1223.5,-233.5 1216.1,-232.99 1217.4,-237.71"/>
<text text-anchor="middle" x="1206.5" y="-402.2" font-family="Helvetica,sans-Serif" font-weight="bold" font-size="11.00" fill="#1f5fcc">4</text>
</g>
<!-- tx&#45;&gt;terminals -->
<g id="edge21" class="edge">
<title>tx&#45;&gt;terminals:w</title>
<path fill="none" stroke="#555555" d="M1092.53,-436.68C1096.89,-435.36 1101.27,-434.11 1105.5,-433 1154.16,-420.27 1183.93,-449.32 1216.5,-411 1244.76,-377.74 1184.93,-222.32 1216.5,-204.22"/>
<polygon fill="#555555" stroke="#555555" points="1217.29,-206.55 1223.5,-202.5 1216.12,-201.79 1217.29,-206.55"/>
<text text-anchor="middle" x="1225.5" y="-402.2" font-family="Helvetica,sans-Serif" font-weight="bold" font-size="11.00" fill="#1f5fcc">5</text>
</g>
<!-- inputs -->
<g id="node14" class="node">
<title>inputs</title>
<path fill="#fce6a8" stroke="#c9a227" d="M584.5,-298.5C584.5,-298.5 554.5,-298.5 554.5,-298.5 548.5,-298.5 542.5,-292.5 542.5,-286.5 542.5,-286.5 542.5,-274.5 542.5,-274.5 542.5,-268.5 548.5,-262.5 554.5,-262.5 554.5,-262.5 584.5,-262.5 584.5,-262.5 590.5,-262.5 596.5,-268.5 596.5,-274.5 596.5,-274.5 596.5,-286.5 596.5,-286.5 596.5,-292.5 590.5,-298.5 584.5,-298.5"/>
<text text-anchor="middle" x="569.5" y="-277.7" font-family="Helvetica,sans-Serif" font-size="11.00">Inputs</text>
</g>
<!-- tx&#45;&gt;inputs -->
<g id="edge11" class="edge">
<title>tx&#45;&gt;inputs</title>
<path fill="none" stroke="#555555" d="M1014.44,-445.09C931.31,-434.19 739.72,-406.61 681.5,-377 645.18,-358.52 610.64,-326 589.77,-304.11"/>
<polygon fill="#555555" stroke="#555555" points="591.34,-302.21 584.76,-298.79 587.77,-305.56 591.34,-302.21"/>
<text text-anchor="middle" x="798.5" y="-402.2" font-family="Helvetica,sans-Serif" font-weight="bold" font-size="11.00" fill="#1f5fcc">6</text>
</g>
<!-- unlock -->
<g id="node15" class="node">
<title>unlock</title>
<path fill="#fce6a8" stroke="#c9a227" d="M777.5,-298.5C777.5,-298.5 705.5,-298.5 705.5,-298.5 699.5,-298.5 693.5,-292.5 693.5,-286.5 693.5,-286.5 693.5,-274.5 693.5,-274.5 693.5,-268.5 699.5,-262.5 705.5,-262.5 705.5,-262.5 777.5,-262.5 777.5,-262.5 783.5,-262.5 789.5,-268.5 789.5,-274.5 789.5,-274.5 789.5,-286.5 789.5,-286.5 789.5,-292.5 783.5,-298.5 777.5,-298.5"/>
<text text-anchor="middle" x="741.5" y="-277.7" font-family="Helvetica,sans-Serif" font-size="11.00">Unlock params</text>
</g>
<!-- tx&#45;&gt;unlock -->
<g id="edge12" class="edge">
<title>tx&#45;&gt;unlock</title>
<path fill="none" stroke="#555555" d="M1014.47,-447.14C961.63,-441.52 866.62,-425.01 802.5,-377 777.92,-358.59 760.63,-327.12 750.89,-305.37"/>
<polygon fill="#555555" stroke="#555555" points="753.02,-304.12 747.99,-298.67 748.52,-306.07 753.02,-304.12"/>
<text text-anchor="middle" x="861.5" y="-402.2" font-family="Helvetica,sans-Serif" font-weight="bold" font-size="11.00" fill="#1f5fcc">7</text>
</g>
<!-- outputs -->
<g id="node16" class="node">
<title>outputs</title>
<path fill="#fce6a8" stroke="#c9a227" d="M914,-298.5C914,-298.5 827,-298.5 827,-298.5 821,-298.5 815,-292.5 815,-286.5 815,-286.5 815,-274.5 815,-274.5 815,-268.5 821,-262.5 827,-262.5 827,-262.5 914,-262.5 914,-262.5 920,-262.5 926,-268.5 926,-274.5 926,-274.5 926,-286.5 926,-286.5 926,-292.5 920,-298.5 914,-298.5"/>
<text text-anchor="middle" x="870.5" y="-277.7" font-family="Helvetica,sans-Serif" font-size="11.00">Produced outputs</text>
</g>
<!-- tx&#45;&gt;outputs -->
<g id="edge13" class="edge">
<title>tx&#45;&gt;outputs</title>
<path fill="none" stroke="#555555" d="M1014.2,-433.01C1001.43,-426.79 987.47,-419.25 975.5,-411 934.51,-382.75 901.2,-334.01 883.76,-305.06"/>
<polygon fill="#555555" stroke="#555555" points="885.75,-303.62 880.08,-298.85 881.54,-306.12 885.75,-303.62"/>
<text text-anchor="middle" x="979.5" y="-402.2" font-family="Helvetica,sans-Serif" font-weight="bold" font-size="11.00" fill="#1f5fcc">8</text>
</g>
<!-- endorse -->
<g id="node17" class="node">
<title>endorse</title>
<path fill="#fce6a8" stroke="#c9a227" d="M1032,-298.5C1032,-298.5 963,-298.5 963,-298.5 957,-298.5 951,-292.5 951,-286.5 951,-286.5 951,-274.5 951,-274.5 951,-268.5 957,-262.5 963,-262.5 963,-262.5 1032,-262.5 1032,-262.5 1038,-262.5 1044,-268.5 1044,-274.5 1044,-274.5 1044,-286.5 1044,-286.5 1044,-292.5 1038,-298.5 1032,-298.5"/>
<text text-anchor="middle" x="997.5" y="-277.7" font-family="Helvetica,sans-Serif" font-size="11.00">Endorsements</text>
</g>
<!-- tx&#45;&gt;endorse -->
<g id="edge14" class="edge">
<title>tx&#45;&gt;endorse</title>
<path fill="none" stroke="#555555" d="M1015.7,-432.94C1007.23,-427.23 999.33,-419.98 994.5,-411 976.71,-377.91 983.42,-332.85 990.22,-305.54"/>
<polygon fill="#555555" stroke="#555555" points="992.62,-306.06 992.03,-298.67 987.88,-304.82 992.62,-306.06"/>
<text text-anchor="middle" x="998.5" y="-402.2" font-family="Helvetica,sans-Serif" font-weight="bold" font-size="11.00" fill="#1f5fcc">9</text>
</g>
<!-- txcons -->
<g id="node18" class="node">
<title>txcons</title>
<path fill="#fce6a8" stroke="#c9a227" d="M1180,-298.5C1180,-298.5 1081,-298.5 1081,-298.5 1075,-298.5 1069,-292.5 1069,-286.5 1069,-286.5 1069,-274.5 1069,-274.5 1069,-268.5 1075,-262.5 1081,-262.5 1081,-262.5 1180,-262.5 1180,-262.5 1186,-262.5 1192,-268.5 1192,-274.5 1192,-274.5 1192,-286.5 1192,-286.5 1192,-292.5 1186,-298.5 1180,-298.5"/>
<text text-anchor="middle" x="1130.5" y="-277.7" font-family="Helvetica,sans-Serif" font-size="11.00">Tx&#45;level constraints</text>
</g>
<!-- tx&#45;&gt;txcons -->
<g id="edge15" class="edge">
<title>tx&#45;&gt;txcons</title>
<path fill="none" stroke="#555555" d="M1037.47,-432.99C1030.12,-423.06 1024.12,-410.31 1029.5,-399 1036.14,-385.02 1045.69,-388.08 1056.5,-377 1078.8,-354.14 1100.75,-324.7 1114.88,-304.58"/>
<polygon fill="#555555" stroke="#555555" points="1117.01,-305.8 1119,-298.66 1112.99,-303 1117.01,-305.8"/>
<text text-anchor="middle" x="1037.5" y="-402.2" font-family="Helvetica,sans-Serif" font-weight="bold" font-size="11.00" fill="#1f5fcc">10</text>
</g>
<!-- legend -->
<g id="node12" class="node">
<title>legend</title>
<polygon fill="#fce6a8" stroke="transparent" points="1121.5,-441 1121.5,-461 1134.5,-461 1134.5,-441 1121.5,-441"/>
<text text-anchor="start" x="1126" y="-448.2" font-family="Helvetica,sans-Serif" font-size="11.00"> </text>
<text text-anchor="start" x="1139.5" y="-448.8" font-family="Helvetica,sans-Serif" font-size="9.00">tuple</text>
<polygon fill="#dedede" stroke="transparent" points="1168.5,-441 1168.5,-461 1181.5,-461 1181.5,-441 1168.5,-441"/>
<text text-anchor="start" x="1173" y="-448.2" font-family="Helvetica,sans-Serif" font-size="11.00"> </text>
<text text-anchor="start" x="1186.5" y="-448.8" font-family="Helvetica,sans-Serif" font-size="9.00">terminal</text>
<polygon fill="white" stroke="transparent" points="1229.5,-441 1229.5,-461 1242.5,-461 1242.5,-441 1229.5,-441"/>
<polygon fill="none" stroke="#cc0000" stroke-width="2" points="1230.5,-442 1230.5,-460 1241.5,-460 1241.5,-442 1230.5,-442"/>
<text text-anchor="start" x="1234" y="-448.2" font-family="Helvetica,sans-Serif" font-size="11.00"> </text>
<text text-anchor="start" x="1247.5" y="-448.8" font-family="Helvetica,sans-Serif" font-size="9.00">bytecode (evaluated)</text>
</g>
<!-- in0 -->
<g id="node19" class="node">
<title>in0</title>
<polygon fill="#dedede" stroke="#808080" points="455.5,-128 387.5,-128 387.5,-92 455.5,-92 455.5,-128"/>
<text text-anchor="middle" x="421.5" y="-107.2" font-family="Helvetica,sans-Serif" font-size="11.00">Output ID</text>
</g>
<!-- inputs&#45;&gt;in0 -->
<g id="edge22" class="edge">
<title>inputs&#45;&gt;in0</title>
<path fill="none" stroke="#555555" d="M554.49,-262.42C527.68,-231.89 471.54,-167.97 441.49,-133.76"/>
<polygon fill="#555555" stroke="#555555" points="443.01,-131.77 436.55,-128.13 439.32,-135.01 443.01,-131.77"/>
<text text-anchor="middle" x="468.5" y="-153.2" font-family="Helvetica,sans-Serif" font-weight="bold" font-size="11.00" fill="#1f5fcc">0</text>
</g>
<!-- in1 -->
<g id="node20" class="node">
<title>in1</title>
<polygon fill="#dedede" stroke="#808080" points="548.5,-128 480.5,-128 480.5,-92 548.5,-92 548.5,-128"/>
<text text-anchor="middle" x="514.5" y="-107.2" font-family="Helvetica,sans-Serif" font-size="11.00">Output ID</text>
</g>
<!-- inputs&#45;&gt;in1 -->
<g id="edge23" class="edge">
<title>inputs&#45;&gt;in1</title>
<path fill="none" stroke="#555555" d="M563.92,-262.42C554.08,-232.27 533.61,-169.55 522.35,-135.04"/>
<polygon fill="#555555" stroke="#555555" points="524.59,-134.02 520.09,-128.13 519.93,-135.54 524.59,-134.02"/>
<text text-anchor="middle" x="534.5" y="-153.2" font-family="Helvetica,sans-Serif" font-weight="bold" font-size="11.00" fill="#1f5fcc">1</text>
</g>
<!-- inN -->
<g id="node21" class="node">
<title>inN</title>
<text text-anchor="middle" x="600.5" y="-107.2" font-family="Helvetica,sans-Serif" font-size="11.00">...</text>
</g>
<!-- inputs&#45;&gt;inN -->
<g id="edge24" class="edge">
<title>inputs&#45;&gt;inN</title>
<path fill="none" stroke="#aaaaaa" d="M572.64,-262.42C578.58,-230.12 591.4,-160.46 597.35,-128.13"/>
<text text-anchor="middle" x="596.5" y="-153.2" font-family="Helvetica,sans-Serif" font-weight="bold" font-size="11.00" fill="#1f5fcc">n</text>
</g>
<!-- up0 -->
<g id="node22" class="node">
<title>up0</title>
<path fill="#fce6a8" stroke="#c9a227" d="M696.5,-128C696.5,-128 664.5,-128 664.5,-128 658.5,-128 652.5,-122 652.5,-116 652.5,-116 652.5,-104 652.5,-104 652.5,-98 658.5,-92 664.5,-92 664.5,-92 696.5,-92 696.5,-92 702.5,-92 708.5,-98 708.5,-104 708.5,-104 708.5,-116 708.5,-116 708.5,-122 702.5,-128 696.5,-128"/>
<text text-anchor="middle" x="680.5" y="-107.2" font-family="Helvetica,sans-Serif" font-size="11.00">params</text>
</g>
<!-- unlock&#45;&gt;up0 -->
<g id="edge25" class="edge">
<title>unlock&#45;&gt;up0</title>
<path fill="none" stroke="#555555" d="M735.32,-262.42C724.4,-232.27 701.69,-169.55 689.2,-135.04"/>
<polygon fill="#555555" stroke="#555555" points="691.39,-133.88 686.7,-128.13 686.78,-135.55 691.39,-133.88"/>
<text text-anchor="middle" x="702.5" y="-153.2" font-family="Helvetica,sans-Serif" font-weight="bold" font-size="11.00" fill="#1f5fcc">0</text>
</g>
<!-- upN -->
<g id="node23" class="node">
<title>upN</title>
<text text-anchor="middle" x="760.5" y="-107.2" font-family="Helvetica,sans-Serif" font-size="11.00">...</text>
</g>
<!-- unlock&#45;&gt;upN -->
<g id="edge26" class="edge">
<title>unlock&#45;&gt;upN</title>
<path fill="none" stroke="#aaaaaa" d="M743.43,-262.42C747.07,-230.12 754.92,-160.46 758.57,-128.13"/>
<text text-anchor="middle" x="759.5" y="-153.2" font-family="Helvetica,sans-Serif" font-weight="bold" font-size="11.00" fill="#1f5fcc">n</text>
</g>
<!-- ux0 -->
<g id="node24" class="node">
<title>ux0</title>
<path fill="#fce6a8" stroke="#c9a227" d="M854.5,-128C854.5,-128 824.5,-128 824.5,-128 818.5,-128 812.5,-122 812.5,-116 812.5,-116 812.5,-104 812.5,-104 812.5,-98 818.5,-92 824.5,-92 824.5,-92 854.5,-92 854.5,-92 860.5,-92 866.5,-98 866.5,-104 866.5,-104 866.5,-116 866.5,-116 866.5,-122 860.5,-128 854.5,-128"/>
<text text-anchor="middle" x="839.5" y="-107.2" font-family="Helvetica,sans-Serif" font-size="11.00">UTXO</text>
</g>
<!-- outputs&#45;&gt;ux0 -->
<g id="edge27" class="edge">
<title>outputs&#45;&gt;ux0</title>
<path fill="none" stroke="#555555" d="M867.36,-262.42C861.81,-232.27 850.27,-169.55 843.92,-135.04"/>
<polygon fill="#555555" stroke="#555555" points="846.33,-134.57 842.65,-128.13 841.51,-135.46 846.33,-134.57"/>
<text text-anchor="middle" x="852.5" y="-153.2" font-family="Helvetica,sans-Serif" font-weight="bold" font-size="11.00" fill="#1f5fcc">0</text>
</g>
<!-- uxN -->
<g id="node25" class="node">
<title>uxN</title>
<text text-anchor="middle" x="918.5" y="-107.2" font-family="Helvetica,sans-Serif" font-size="11.00">...</text>
</g>
<!-- outputs&#45;&gt;uxN -->
<g id="edge28" class="edge">
<title>outputs&#45;&gt;uxN</title>
<path fill="none" stroke="#aaaaaa" d="M875.37,-262.42C884.57,-230.12 904.41,-160.46 913.62,-128.13"/>
<text text-anchor="middle" x="912.5" y="-153.2" font-family="Helvetica,sans-Serif" font-weight="bold" font-size="11.00" fill="#1f5fcc">m</text>
</g>
<!-- e0 -->
<g id="node30" class="node">
<title>e0</title>
<polygon fill="#dedede" stroke="#808080" points="1024.5,-128 970.5,-128 970.5,-92 1024.5,-92 1024.5,-128"/>
<text text-anchor="middle" x="997.5" y="-107.2" font-family="Helvetica,sans-Serif" font-size="11.00">Tx ID</text>
</g>
<!-- endorse&#45;&gt;e0 -->
<g id="edge33" class="edge">
<title>endorse&#45;&gt;e0</title>
<path fill="none" stroke="#555555" d="M997.5,-262.42C997.5,-232.39 997.5,-170.07 997.5,-135.48"/>
<polygon fill="#555555" stroke="#555555" points="999.95,-135.13 997.5,-128.13 995.05,-135.13 999.95,-135.13"/>
<text text-anchor="middle" x="1001.5" y="-153.2" font-family="Helvetica,sans-Serif" font-weight="bold" font-size="11.00" fill="#1f5fcc">0</text>
</g>
<!-- eN -->
<g id="node31" class="node">
<title>eN</title>
<text text-anchor="middle" x="1076.5" y="-107.2" font-family="Helvetica,sans-Serif" font-size="11.00">...</text>
</g>
<!-- endorse&#45;&gt;eN -->
<g id="edge34" class="edge">
<title>endorse&#45;&gt;eN</title>
<path fill="none" stroke="#aaaaaa" d="M1005.51,-262.42C1020.65,-230.12 1053.31,-160.46 1068.47,-128.13"/>
<text text-anchor="middle" x="1060.5" y="-153.2" font-family="Helvetica,sans-Serif" font-weight="bold" font-size="11.00" fill="#1f5fcc">k</text>
</g>
<!-- bc0 -->
<g id="node32" class="node">
<title>bc0</title>
<polygon fill="white" stroke="#cc0000" stroke-width="1.6" points="1194.5,-128 1128.5,-128 1128.5,-92 1194.5,-92 1194.5,-128"/>
<text text-anchor="middle" x="1161.5" y="-107.2" font-family="Helvetica,sans-Serif" font-size="11.00">bytecode</text>
</g>
<!-- txcons&#45;&gt;bc0 -->
<g id="edge35" class="edge">
<title>txcons&#45;&gt;bc0</title>
<path fill="none" stroke="#555555" d="M1133.64,-262.42C1139.19,-232.27 1150.73,-169.55 1157.08,-135.04"/>
<polygon fill="#555555" stroke="#555555" points="1159.49,-135.46 1158.35,-128.13 1154.67,-134.57 1159.49,-135.46"/>
<text text-anchor="middle" x="1157.5" y="-153.2" font-family="Helvetica,sans-Serif" font-weight="bold" font-size="11.00" fill="#1f5fcc">0</text>
</g>
<!-- in0&#45;&gt;cux0 -->
<g id="edge36" class="edge">
<title>in0&#45;&gt;cux0</title>
<path fill="none" stroke="#2e7d32" stroke-width="1.2" stroke-dasharray="5,2" d="M404.47,-128.47C393.71,-138.73 378.87,-150.51 363,-156 306.72,-175.48 284.64,-177.23 229,-156 216.94,-151.4 205.92,-142.53 197.19,-133.8"/>
<polygon fill="#2e7d32" stroke="#2e7d32" stroke-width="1.2" points="192.06,-128.42 199.17,-131.32 194.55,-130.89 196.97,-133.42 196.89,-133.49 196.82,-133.56 194.41,-131.03 194.61,-135.66 192.06,-128.42 192.06,-128.42"/>
<text text-anchor="middle" x="275.84" y="-174.32" font-family="Helvetica,sans-Serif" font-weight="bold" font-size="11.00" fill="#2e7d32">utxo(id)</text>
</g>
<!-- in1&#45;&gt;cux1 -->
<g id="edge37" class="edge">
<title>in1&#45;&gt;cux1</title>
<path fill="none" stroke="#2e7d32" stroke-width="1.2" stroke-dasharray="5,2" d="M497.47,-128.47C486.71,-138.73 471.87,-150.51 456,-156 393.84,-177.51 369.46,-179.45 308,-156 295.94,-151.4 284.92,-142.53 276.19,-133.8"/>
<polygon fill="#2e7d32" stroke="#2e7d32" stroke-width="1.2" points="271.06,-128.42 278.17,-131.32 273.55,-130.89 275.97,-133.42 275.89,-133.49 275.82,-133.56 273.41,-131.03 273.61,-135.66 271.06,-128.42 271.06,-128.42"/>
</g>
<!-- up0&#45;&gt;in0 -->
<g id="edge38" class="edge">
<title>up0&#45;&gt;in0</title>
<path fill="none" stroke="#8e44ad" stroke-width="1.2" stroke-dasharray="5,2" d="M665.58,-128.43C656.05,-138.68 642.75,-150.45 628,-156 566.85,-179 542.83,-177.11 481,-156 467.24,-151.3 454.19,-141.98 443.84,-132.96"/>
<polygon fill="#8e44ad" stroke="#8e44ad" stroke-width="1.2" points="438.38,-128 445.68,-130.37 441.04,-130.28 443.63,-132.63 443.56,-132.71 443.49,-132.78 440.9,-130.43 441.44,-135.04 438.38,-128 438.38,-128"/>
<text text-anchor="middle" x="525.74" y="-175.59" font-family="Helvetica,sans-Serif" font-weight="bold" font-size="11.00" fill="#8e44ad">unlocks</text>
</g>
<!-- p_amounts -->
<g id="node26" class="node">
<title>p_amounts</title>
<path fill="#fce6a8" stroke="#c9a227" d="M713,-36C713,-36 674,-36 674,-36 668,-36 662,-30 662,-24 662,-24 662,-12 662,-12 662,-6 668,0 674,0 674,0 713,0 713,0 719,0 725,-6 725,-12 725,-12 725,-24 725,-24 725,-30 719,-36 713,-36"/>
<text text-anchor="middle" x="693.5" y="-15.2" font-family="Helvetica,sans-Serif" font-size="11.00">amounts</text>
</g>
<!-- ux0&#45;&gt;p_amounts -->
<g id="edge29" class="edge">
<title>ux0&#45;&gt;p_amounts</title>
<path fill="none" stroke="#555555" d="M812.38,-92.28C788.41,-77.51 753.34,-55.88 727.49,-39.96"/>
<polygon fill="#555555" stroke="#555555" points="728.71,-37.83 721.47,-36.24 726.14,-42 728.71,-37.83"/>
<text text-anchor="middle" x="778.5" y="-61.2" font-family="Helvetica,sans-Serif" font-weight="bold" font-size="11.00" fill="#1f5fcc">0</text>
</g>
<!-- p_idxval -->
<g id="node27" class="node">
<title>p_idxval</title>
<path fill="#fce6a8" stroke="#c9a227" d="M822.5,-36C822.5,-36 762.5,-36 762.5,-36 756.5,-36 750.5,-30 750.5,-24 750.5,-24 750.5,-12 750.5,-12 750.5,-6 756.5,0 762.5,0 762.5,0 822.5,0 822.5,0 828.5,0 834.5,-6 834.5,-12 834.5,-12 834.5,-24 834.5,-24 834.5,-30 828.5,-36 822.5,-36"/>
<text text-anchor="middle" x="792.5" y="-15.2" font-family="Helvetica,sans-Serif" font-size="11.00">index&#45;values</text>
</g>
<!-- ux0&#45;&gt;p_idxval -->
<g id="edge30" class="edge">
<title>ux0&#45;&gt;p_idxval</title>
<path fill="none" stroke="#555555" d="M830.44,-91.65C823.16,-77.7 812.85,-57.97 804.82,-42.59"/>
<polygon fill="#555555" stroke="#555555" points="806.95,-41.37 801.53,-36.3 802.6,-43.64 806.95,-41.37"/>
<text text-anchor="middle" x="822.5" y="-61.2" font-family="Helvetica,sans-Serif" font-weight="bold" font-size="11.00" fill="#1f5fcc">1</text>
</g>
<!-- p_lock -->
<g id="node28" class="node">
<title>p_lock</title>
<polygon fill="white" stroke="#cc0000" stroke-width="1.6" points="913.5,-36 859.5,-36 859.5,0 913.5,0 913.5,-36"/>
<text text-anchor="middle" x="886.5" y="-15.2" font-family="Helvetica,sans-Serif" font-size="11.00">lock</text>
</g>
<!-- ux0&#45;&gt;p_lock -->
<g id="edge31" class="edge">
<title>ux0&#45;&gt;p_lock</title>
<path fill="none" stroke="#555555" d="M848.56,-91.65C855.84,-77.7 866.15,-57.97 874.18,-42.59"/>
<polygon fill="#555555" stroke="#555555" points="876.4,-43.64 877.47,-36.3 872.05,-41.37 876.4,-43.64"/>
<text text-anchor="middle" x="869.5" y="-61.2" font-family="Helvetica,sans-Serif" font-weight="bold" font-size="11.00" fill="#1f5fcc">2</text>
</g>
<!-- p_cstr -->
<g id="node29" class="node">
<title>p_cstr</title>
<polygon fill="white" stroke="#cc0000" stroke-width="1.6" points="1008.5,-36 938.5,-36 938.5,0 1008.5,0 1008.5,-36"/>
<text text-anchor="middle" x="973.5" y="-15.2" font-family="Helvetica,sans-Serif" font-size="11.00">constraint</text>
</g>
<!-- ux0&#45;&gt;p_cstr -->
<g id="edge32" class="edge">
<title>ux0&#45;&gt;p_cstr</title>
<path fill="none" stroke="#555555" d="M865.02,-91.86C886.91,-77.16 918.53,-55.92 941.99,-40.16"/>
<polygon fill="#555555" stroke="#555555" points="943.63,-42.01 948.08,-36.08 940.9,-37.95 943.63,-42.01"/>
<text text-anchor="middle" x="923" y="-61.2" font-family="Helvetica,sans-Serif" font-weight="bold" font-size="11.00" fill="#1f5fcc">3+</text>
</g>
</g>
</svg>
