<?xml version="1.0" encoding="UTF-8" standalone="no"?>
<!DOCTYPE svg PUBLIC "-//W3C//DTD SVG 1.1//EN"
 "http://www.w3.org/Graphics/SVG/1.1/DTD/svg11.dtd">
<!-- Generated by graphviz version 2.43.0 (0)
 -->
<!-- Title: TxRaw Pages: 1 -->
<svg width="1052pt" height="477pt"
 viewBox="0.00 0.00 1052.00 477.00" xmlns="http://www.w3.org/2000/svg" xmlns:xlink="http://www.w3.org/1999/xlink">
<g id="graph0" class="graph" transform="scale(1 1) rotate(0) translate(4 473)">
<title>TxRaw</title>
<polygon fill="white" stroke="transparent" points="-4,4 -4,-473 1048,-473 1048,4 -4,4"/>
<!-- root -->
<g id="node1" class="node">
<title>root</title>
<path fill="#fce6a8" stroke="#c9a227" d="M756,-469C756,-469 676,-469 676,-469 670,-469 664,-463 664,-457 664,-457 664,-445 664,-445 664,-439 670,-433 676,-433 676,-433 756,-433 756,-433 762,-433 768,-439 768,-445 768,-445 768,-457 768,-457 768,-463 762,-469 756,-469"/>
<text text-anchor="middle" x="716" y="-448.2" font-family="Helvetica,sans-Serif" font-size="11.00">Raw transaction</text>
</g>
<!-- terminals -->
<g id="node3" class="node">
<title>terminals</title>
<polygon fill="#dedede" stroke="transparent" points="859,-345.5 859,-369.5 1037,-369.5 1037,-345.5 859,-345.5"/>
<polygon fill="none" stroke="#808080" points="859,-345.5 859,-369.5 1037,-369.5 1037,-345.5 859,-345.5"/>
<text text-anchor="start" x="900.5" y="-354.7" font-family="Helvetica,sans-Serif" font-size="11.00">Version (2 bytes)</text>
<polygon fill="#dedede" stroke="transparent" points="859,-314.5 859,-338.5 1037,-338.5 1037,-314.5 859,-314.5"/>
<polygon fill="none" stroke="#808080" points="859,-314.5 859,-338.5 1037,-338.5 1037,-314.5 859,-314.5"/>
<text text-anchor="start" x="890" y="-323.7" font-family="Helvetica,sans-Serif" font-size="11.00">Timestamp (5 bytes)</text>
<polygon fill="#dedede" stroke="transparent" points="859,-283.5 859,-307.5 1037,-307.5 1037,-283.5 859,-283.5"/>
<polygon fill="none" stroke="#808080" points="859,-283.5 859,-307.5 1037,-307.5 1037,-283.5 859,-283.5"/>
<text text-anchor="start" x="865" y="-292.7" font-family="Helvetica,sans-Serif" font-size="11.00">Sequencer data (0 or 2 bytes)</text>
<polygon fill="#dedede" stroke="transparent" points="859,-252.5 859,-276.5 1037,-276.5 1037,-252.5 859,-252.5"/>
<polygon fill="none" stroke="#808080" points="859,-252.5 859,-276.5 1037,-276.5 1037,-252.5 859,-252.5"/>
<text text-anchor="start" x="921.5" y="-261.7" font-family="Helvetica,sans-Serif" font-size="11.00">Signature</text>
<polygon fill="#dedede" stroke="transparent" points="859,-221.5 859,-245.5 1037,-245.5 1037,-221.5 859,-221.5"/>
<polygon fill="none" stroke="#808080" points="859,-221.5 859,-245.5 1037,-245.5 1037,-221.5 859,-221.5"/>
<text text-anchor="start" x="866.5" y="-230.7" font-family="Helvetica,sans-Serif" font-size="11.00">Input commitment (32 bytes)</text>
<polygon fill="#dedede" stroke="transparent" points="859,-190.5 859,-214.5 1037,-214.5 1037,-190.5 859,-190.5"/>
<polygon fill="none" stroke="#808080" points="859,-190.5 859,-214.5 1037,-214.5 1037,-190.5 859,-190.5"/>
<text text-anchor="start" x="871" y="-199.7" font-family="Helvetica,sans-Serif" font-size="11.00">Explicit baseline (opt. tx ID)</text>
</g>
<!-- root&#45;&gt;terminals -->
<g id="edge6" class="edge">
<title>root&#45;&gt;terminals:w</title>
<path fill="none" stroke="#555555" d="M711.7,-432.89C710.03,-421.92 710.1,-408.1 718,-399 753.84,-357.73 790.75,-402.68 839,-377 846.84,-372.82 846.89,-364.27 851.15,-360.01"/>
<polygon fill="#555555" stroke="#555555" points="852.27,-362.21 858,-357.5 850.58,-357.61 852.27,-362.21"/>
<text text-anchor="middle" x="722" y="-402.2" font-family="Helvetica,sans-Serif" font-weight="bold" font-size="11.00" fill="#1f5fcc">0</text>
</g>
<!-- root&#45;&gt;terminals -->
<g id="edge7" class="edge">
<title>root&#45;&gt;terminals:w</title>
<path fill="none" stroke="#555555" d="M725.39,-432.93C732.42,-421.69 743.03,-407.54 756,-399 787.87,-378.01 810.69,-402.59 839,-377 854.57,-362.93 839.08,-334.82 851.03,-328.01"/>
<polygon fill="#555555" stroke="#555555" points="851.68,-330.38 858,-326.5 850.64,-325.59 851.68,-330.38"/>
<text text-anchor="middle" x="760" y="-402.2" font-family="Helvetica,sans-Serif" font-weight="bold" font-size="11.00" fill="#1f5fcc">1</text>
</g>
<!-- root&#45;&gt;terminals -->
<g id="edge8" class="edge">
<title>root&#45;&gt;terminals:w</title>
<path fill="none" stroke="#555555" d="M740.45,-432.89C755.58,-422.58 775.57,-409.47 794,-399 813.35,-388 825.13,-394.41 839,-377 860.45,-350.07 826.59,-303.15 850.96,-296.34"/>
<polygon fill="#555555" stroke="#555555" points="851.34,-298.76 858,-295.5 850.76,-293.89 851.34,-298.76"/>
<text text-anchor="middle" x="798" y="-402.2" font-family="Helvetica,sans-Serif" font-weight="bold" font-size="11.00" fill="#1f5fcc">2</text>
</g>
<!-- root&#45;&gt;terminals -->
<g id="edge9" class="edge">
<title>root&#45;&gt;terminals:w</title>
<path fill="none" stroke="#555555" d="M768.2,-433.43C794.57,-422.08 824.07,-404.07 839,-377 849.91,-357.23 836.35,-283.44 851.16,-267.53"/>
<polygon fill="#555555" stroke="#555555" points="852.59,-269.58 858,-264.5 850.61,-265.1 852.59,-269.58"/>
<text text-anchor="middle" x="824" y="-402.2" font-family="Helvetica,sans-Serif" font-weight="bold" font-size="11.00" fill="#1f5fcc">3</text>
</g>
<!-- root&#45;&gt;terminals -->
<g id="edge10" class="edge">
<title>root&#45;&gt;terminals:w</title>
<path fill="none" stroke="#555555" d="M768.02,-435.54C797.48,-426.88 829.37,-416.51 834,-411 857.91,-382.55 823.4,-252.51 851.1,-235.37"/>
<polygon fill="#555555" stroke="#555555" points="851.88,-237.69 858,-233.5 850.6,-232.96 851.88,-237.69"/>
<text text-anchor="middle" x="842" y="-402.2" font-family="Helvetica,sans-Serif" font-weight="bold" font-size="11.00" fill="#1f5fcc">4</text>
</g>
<!-- root&#45;&gt;terminals -->
<g id="edge11" class="edge">
<title>root&#45;&gt;terminals:w</title>
<path fill="none" stroke="#555555" d="M768.22,-435.78C805.98,-425.38 850.62,-412.78 852,-411 864.82,-394.48 840.52,-238.01 852.68,-207.6"/>
<polygon fill="#555555" stroke="#555555" points="854.64,-209.11 858,-202.5 851.25,-205.58 854.64,-209.11"/>
<text text-anchor="middle" x="858" y="-402.2" font-family="Helvetica,sans-Serif" font-weight="bold" font-size="11.00" fill="#1f5fcc">5</text>
</g>
<!-- inputs -->
<g id="node4" class="node">
<title>inputs</title>
<path fill="#fce6a8" stroke="#c9a227" d="M185,-298.5C185,-298.5 155,-298.5 155,-298.5 149,-298.5 143,-292.5 143,-286.5 143,-286.5 143,-274.5 143,-274.5 143,-268.5 149,-262.5 155,-262.5 155,-262.5 185,-262.5 185,-262.5 191,-262.5 197,-268.5 197,-274.5 197,-274.5 197,-286.5 197,-286.5 197,-292.5 191,-298.5 185,-298.5"/>
<text text-anchor="middle" x="170" y="-277.7" font-family="Helvetica,sans-Serif" font-size="11.00">Inputs</text>
</g>
<!-- root&#45;&gt;inputs -->
<g id="edge1" class="edge">
<title>root&#45;&gt;inputs</title>
<path fill="none" stroke="#555555" d="M663.75,-447.92C584.96,-443.17 432.37,-427.64 314,-377 269.45,-357.94 223.8,-324.92 196.17,-303.14"/>
<polygon fill="#555555" stroke="#555555" points="197.55,-301.11 190.55,-298.67 194.5,-304.94 197.55,-301.11"/>
<text text-anchor="middle" x="414" y="-402.2" font-family="Helvetica,sans-Serif" font-weight="bold" font-size="11.00" fill="#1f5fcc">6</text>
</g>
<!-- unlock -->
<g id="node5" class="node">
<title>unlock</title>
<path fill="#fce6a8" stroke="#c9a227" d="M411,-298.5C411,-298.5 339,-298.5 339,-298.5 333,-298.5 327,-292.5 327,-286.5 327,-286.5 327,-274.5 327,-274.5 327,-268.5 333,-262.5 339,-262.5 339,-262.5 411,-262.5 411,-262.5 417,-262.5 423,-268.5 423,-274.5 423,-274.5 423,-286.5 423,-286.5 423,-292.5 417,-298.5 411,-298.5"/>
<text text-anchor="middle" x="375" y="-277.7" font-family="Helvetica,sans-Serif" font-size="11.00">Unlock params</text>
</g>
<!-- root&#45;&gt;unlock -->
<g id="edge2" class="edge">
<title>root&#45;&gt;unlock</title>
<path fill="none" stroke="#555555" d="M663.94,-447.51C604.04,-442.29 505.19,-426.25 437,-377 411.87,-358.86 394.27,-327.12 384.4,-305.24"/>
<polygon fill="#555555" stroke="#555555" points="386.63,-304.23 381.58,-298.79 382.14,-306.19 386.63,-304.23"/>
<text text-anchor="middle" x="503" y="-402.2" font-family="Helvetica,sans-Serif" font-weight="bold" font-size="11.00" fill="#1f5fcc">7</text>
</g>
<!-- outputs -->
<g id="node6" class="node">
<title>outputs</title>
<path fill="#fce6a8" stroke="#c9a227" d="M548.5,-298.5C548.5,-298.5 461.5,-298.5 461.5,-298.5 455.5,-298.5 449.5,-292.5 449.5,-286.5 449.5,-286.5 449.5,-274.5 449.5,-274.5 449.5,-268.5 455.5,-262.5 461.5,-262.5 461.5,-262.5 548.5,-262.5 548.5,-262.5 554.5,-262.5 560.5,-268.5 560.5,-274.5 560.5,-274.5 560.5,-286.5 560.5,-286.5 560.5,-292.5 554.5,-298.5 548.5,-298.5"/>
<text text-anchor="middle" x="505" y="-277.7" font-family="Helvetica,sans-Serif" font-size="11.00">Produced outputs</text>
</g>
<!-- root&#45;&gt;outputs -->
<g id="edge3" class="edge">
<title>root&#45;&gt;outputs</title>
<path fill="none" stroke="#555555" d="M668.54,-432.98C638.78,-420.66 600.91,-401.82 573,-377 549.57,-356.16 529.71,-325.82 517.61,-304.96"/>
<polygon fill="#555555" stroke="#555555" points="519.7,-303.68 514.11,-298.81 515.45,-306.1 519.7,-303.68"/>
<text text-anchor="middle" x="624" y="-402.2" font-family="Helvetica,sans-Serif" font-weight="bold" font-size="11.00" fill="#1f5fcc">8</text>
</g>
<!-- endorse -->
<g id="node7" class="node">
<title>endorse</title>
<path fill="#fce6a8" stroke="#c9a227" d="M666.5,-298.5C666.5,-298.5 597.5,-298.5 597.5,-298.5 591.5,-298.5 585.5,-292.5 585.5,-286.5 585.5,-286.5 585.5,-274.5 585.5,-274.5 585.5,-268.5 591.5,-262.5 597.5,-262.5 597.5,-262.5 666.5,-262.5 666.5,-262.5 672.5,-262.5 678.5,-268.5 678.5,-274.5 678.5,-274.5 678.5,-286.5 678.5,-286.5 678.5,-292.5 672.5,-298.5 666.5,-298.5"/>
<text text-anchor="middle" x="632" y="-277.7" font-family="Helvetica,sans-Serif" font-size="11.00">Endorsements</text>
</g>
<!-- root&#45;&gt;endorse -->
<g id="edge4" class="edge">
<title>root&#45;&gt;endorse</title>
<path fill="none" stroke="#555555" d="M677.68,-432.87C668.65,-427.14 659.93,-419.88 654,-411 632.82,-379.28 629.92,-333.72 630.46,-305.95"/>
<polygon fill="#555555" stroke="#555555" points="632.92,-305.69 630.69,-298.62 628.02,-305.54 632.92,-305.69"/>
<text text-anchor="middle" x="658" y="-402.2" font-family="Helvetica,sans-Serif" font-weight="bold" font-size="11.00" fill="#1f5fcc">9</text>
</g>
<!-- txcons -->
<g id="node8" class="node">
<title>txcons</title>
<path fill="#fce6a8" stroke="#c9a227" d="M814.5,-298.5C814.5,-298.5 715.5,-298.5 715.5,-298.5 709.5,-298.5 703.5,-292.5 703.5,-286.5 703.5,-286.5 703.5,-274.5 703.5,-274.5 703.5,-268.5 709.5,-262.5 715.5,-262.5 715.5,-262.5 814.5,-262.5 814.5,-262.5 820.5,-262.5 826.5,-268.5 826.5,-274.5 826.5,-274.5 826.5,-286.5 826.5,-286.5 826.5,-292.5 820.5,-298.5 814.5,-298.5"/>
<text text-anchor="middle" x="765" y="-277.7" font-family="Helvetica,sans-Serif" font-size="11.00">Tx&#45;level constraints</text>
</g>
<!-- root&#45;&gt;txcons -->
<g id="edge5" class="edge">
<title>root&#45;&gt;txcons</title>
<path fill="none" stroke="#555555" d="M685.01,-432.96C673.12,-423.99 663.56,-412.13 669,-399 674.29,-386.22 681.86,-387.37 691,-377 711.99,-353.18 734.02,-324.15 748.53,-304.39"/>
<polygon fill="#555555" stroke="#555555" points="750.63,-305.67 752.78,-298.57 746.68,-302.78 750.63,-305.67"/>
<text text-anchor="middle" x="677" y="-402.2" font-family="Helvetica,sans-Serif" font-weight="bold" font-size="11.00" fill="#1f5fcc">10</text>
</g>
<!-- legend -->
<g id="node2" class="node">
<title>legend</title>
<polygon fill="#fce6a8" stroke="transparent" points="796,-443 796,-459 809,-459 809,-443 796,-443"/>
<text text-anchor="start" x="800.5" y="-448.2" font-family="Helvetica,sans-Serif" font-size="11.00"> </text>
<text text-anchor="start" x="814" y="-448.8" font-family="Helvetica,sans-Serif" font-size="9.00">tuple</text>
<polygon fill="#dedede" stroke="transparent" points="843,-443 843,-459 856,-459 856,-443 843,-443"/>
<text text-anchor="start" x="847.5" y="-448.2" font-family="Helvetica,sans-Serif" font-size="11.00"> </text>
<text text-anchor="start" x="861" y="-448.8" font-family="Helvetica,sans-Serif" font-size="9.00">terminal (byte array)</text>
</g>
<!-- in0 -->
<g id="node9" class="node">
<title>in0</title>
<polygon fill="#dedede" stroke="#808080" points="68,-128 0,-128 0,-92 68,-92 68,-128"/>
<text text-anchor="middle" x="34" y="-107.2" font-family="Helvetica,sans-Serif" font-size="11.00">Output ID</text>
</g>
<!-- inputs&#45;&gt;in0 -->
<g id="edge12" class="edge">
<title>inputs&#45;&gt;in0</title>
<path fill="none" stroke="#555555" d="M156.21,-262.42C131.57,-231.89 79.98,-167.97 52.37,-133.76"/>
<polygon fill="#555555" stroke="#555555" points="54.13,-132.04 47.83,-128.13 50.32,-135.12 54.13,-132.04"/>
<text text-anchor="middle" x="79" y="-153.2" font-family="Helvetica,sans-Serif" font-weight="bold" font-size="11.00" fill="#1f5fcc">0</text>
</g>
<!-- in1 -->
<g id="node10" class="node">
<title>in1</title>
<polygon fill="#dedede" stroke="#808080" points="161,-128 93,-128 93,-92 161,-92 161,-128"/>
<text text-anchor="middle" x="127" y="-107.2" font-family="Helvetica,sans-Serif" font-size="11.00">Output ID</text>
</g>
<!-- inputs&#45;&gt;in1 -->
<g id="edge13" class="edge">
<title>inputs&#45;&gt;in1</title>
<path fill="none" stroke="#555555" d="M165.64,-262.42C157.95,-232.27 141.94,-169.55 133.14,-135.04"/>
<polygon fill="#555555" stroke="#555555" points="135.48,-134.31 131.37,-128.13 130.73,-135.52 135.48,-134.31"/>
<text text-anchor="middle" x="144" y="-153.2" font-family="Helvetica,sans-Serif" font-weight="bold" font-size="11.00" fill="#1f5fcc">1</text>
</g>
<!-- inN -->
<g id="node11" class="node">
<title>inN</title>
<text text-anchor="middle" x="213" y="-107.2" font-family="Helvetica,sans-Serif" font-size="11.00">...</text>
</g>
<!-- inputs&#45;&gt;inN -->
<g id="edge14" class="edge">
<title>inputs&#45;&gt;inN</title>
<path fill="none" stroke="#aaaaaa" d="M174.36,-262.42C182.6,-230.12 200.38,-160.46 208.63,-128.13"/>
<text text-anchor="middle" x="207" y="-153.2" font-family="Helvetica,sans-Serif" font-weight="bold" font-size="11.00" fill="#1f5fcc">n</text>
</g>
<!-- up0 -->
<g id="node12" class="node">
<title>up0</title>
<path fill="#fce6a8" stroke="#c9a227" d="M309,-128C309,-128 277,-128 277,-128 271,-128 265,-122 265,-116 265,-116 265,-104 265,-104 265,-98 271,-92 277,-92 277,-92 309,-92 309,-92 315,-92 321,-98 321,-104 321,-104 321,-116 321,-116 321,-122 315,-128 309,-128"/>
<text text-anchor="middle" x="293" y="-107.2" font-family="Helvetica,sans-Serif" font-size="11.00">params</text>
</g>
<!-- unlock&#45;&gt;up0 -->
<g id="edge15" class="edge">
<title>unlock&#45;&gt;up0</title>
<path fill="none" stroke="#555555" d="M366.69,-262.42C351.95,-232.14 321.24,-169.02 304.49,-134.61"/>
<polygon fill="#555555" stroke="#555555" points="306.6,-133.35 301.34,-128.13 302.2,-135.5 306.6,-133.35"/>
<text text-anchor="middle" x="322" y="-153.2" font-family="Helvetica,sans-Serif" font-weight="bold" font-size="11.00" fill="#1f5fcc">0</text>
</g>
<!-- upN -->
<g id="node13" class="node">
<title>upN</title>
<text text-anchor="middle" x="375" y="-107.2" font-family="Helvetica,sans-Serif" font-size="11.00">...</text>
</g>
<!-- unlock&#45;&gt;upN -->
<g id="edge16" class="edge">
<title>unlock&#45;&gt;upN</title>
<path fill="none" stroke="#aaaaaa" d="M375,-262.42C375,-230.12 375,-160.46 375,-128.13"/>
<text text-anchor="middle" x="379" y="-153.2" font-family="Helvetica,sans-Serif" font-weight="bold" font-size="11.00" fill="#1f5fcc">n</text>
</g>
<!-- ux0 -->
<g id="node16" class="node">
<title>ux0</title>
<path fill="#fce6a8" stroke="#c9a227" d="M489,-128C489,-128 459,-128 459,-128 453,-128 447,-122 447,-116 447,-116 447,-104 447,-104 447,-98 453,-92 459,-92 459,-92 489,-92 489,-92 495,-92 501,-98 501,-104 501,-104 501,-116 501,-116 501,-122 495,-128 489,-128"/>
<text text-anchor="middle" x="474" y="-107.2" font-family="Helvetica,sans-Serif" font-size="11.00">UTXO</text>
</g>
<!-- outputs&#45;&gt;ux0 -->
<g id="edge19" class="edge">
<title>outputs&#45;&gt;ux0</title>
<path fill="none" stroke="#555555" d="M501.86,-262.42C496.31,-232.27 484.77,-169.55 478.42,-135.04"/>
<polygon fill="#555555" stroke="#555555" points="480.83,-134.57 477.15,-128.13 476.01,-135.46 480.83,-134.57"/>
<text text-anchor="middle" x="488" y="-153.2" font-family="Helvetica,sans-Serif" font-weight="bold" font-size="11.00" fill="#1f5fcc">0</text>
</g>
<!-- uxN -->
<g id="node17" class="node">
<title>uxN</title>
<text text-anchor="middle" x="553" y="-107.2" font-family="Helvetica,sans-Serif" font-size="11.00">...</text>
</g>
<!-- outputs&#45;&gt;uxN -->
<g id="edge20" class="edge">
<title>outputs&#45;&gt;uxN</title>
<path fill="none" stroke="#aaaaaa" d="M509.87,-262.42C519.07,-230.12 538.91,-160.46 548.12,-128.13"/>
<text text-anchor="middle" x="548" y="-153.2" font-family="Helvetica,sans-Serif" font-weight="bold" font-size="11.00" fill="#1f5fcc">m</text>
</g>
<!-- e0 -->
<g id="node22" class="node">
<title>e0</title>
<polygon fill="#dedede" stroke="#808080" points="659,-128 605,-128 605,-92 659,-92 659,-128"/>
<text text-anchor="middle" x="632" y="-107.2" font-family="Helvetica,sans-Serif" font-size="11.00">Tx ID</text>
</g>
<!-- endorse&#45;&gt;e0 -->
<g id="edge25" class="edge">
<title>endorse&#45;&gt;e0</title>
<path fill="none" stroke="#555555" d="M632,-262.42C632,-232.39 632,-170.07 632,-135.48"/>
<polygon fill="#555555" stroke="#555555" points="634.45,-135.13 632,-128.13 629.55,-135.13 634.45,-135.13"/>
<text text-anchor="middle" x="636" y="-153.2" font-family="Helvetica,sans-Serif" font-weight="bold" font-size="11.00" fill="#1f5fcc">0</text>
</g>
<!-- eN -->
<g id="node23" class="node">
<title>eN</title>
<text text-anchor="middle" x="711" y="-107.2" font-family="Helvetica,sans-Serif" font-size="11.00">...</text>
</g>
<!-- endorse&#45;&gt;eN -->
<g id="edge26" class="edge">
<title>endorse&#45;&gt;eN</title>
<path fill="none" stroke="#aaaaaa" d="M640.01,-262.42C655.15,-230.12 687.81,-160.46 702.97,-128.13"/>
<text text-anchor="middle" x="696" y="-153.2" font-family="Helvetica,sans-Serif" font-weight="bold" font-size="11.00" fill="#1f5fcc">k</text>
</g>
<!-- bc0 -->
<g id="node24" class="node">
<title>bc0</title>
<polygon fill="#dedede" stroke="#808080" points="829,-128 763,-128 763,-92 829,-92 829,-128"/>
<text text-anchor="middle" x="796" y="-107.2" font-family="Helvetica,sans-Serif" font-size="11.00">bytecode</text>
</g>
<!-- txcons&#45;&gt;bc0 -->
<g id="edge27" class="edge">
<title>txcons&#45;&gt;bc0</title>
<path fill="none" stroke="#555555" d="M768.14,-262.42C773.69,-232.27 785.23,-169.55 791.58,-135.04"/>
<polygon fill="#555555" stroke="#555555" points="793.99,-135.46 792.85,-128.13 789.17,-134.57 793.99,-135.46"/>
<text text-anchor="middle" x="793" y="-153.2" font-family="Helvetica,sans-Serif" font-weight="bold" font-size="11.00" fill="#1f5fcc">0</text>
</g>
<!-- up0&#45;&gt;in0 -->
<g id="edge28" class="edge">
<title>up0&#45;&gt;in0</title>
<path fill="none" stroke="#8e44ad" stroke-width="1.2" stroke-dasharray="5,2" d="M277.73,-128.44C267.99,-138.69 254.43,-150.46 239.5,-156 178.24,-178.71 154.24,-177.37 92.5,-156 79.11,-151.37 66.45,-142.26 56.36,-133.36"/>
<polygon fill="#8e44ad" stroke="#8e44ad" stroke-width="1.2" points="51.03,-128.47 58.32,-130.88 53.68,-130.76 56.25,-133.13 56.19,-133.2 56.12,-133.28 53.54,-130.91 54.06,-135.52 51.03,-128.47 51.03,-128.47"/>
<text text-anchor="middle" x="139.17" y="-175.67" font-family="Helvetica,sans-Serif" font-weight="bold" font-size="11.00" fill="#8e44ad">unlocks</text>
</g>
<!-- ud0 -->
<g id="node14" class="node">
<title>ud0</title>
<polygon fill="#dedede" stroke="#808080" points="240,-36 186,-36 186,0 240,0 240,-36"/>
<text text-anchor="middle" x="213" y="-15.2" font-family="Helvetica,sans-Serif" font-size="11.00">data</text>
</g>
<!-- up0&#45;&gt;ud0 -->
<g id="edge17" class="edge">
<title>up0&#45;&gt;ud0</title>
<path fill="none" stroke="#555555" d="M277.58,-91.65C264.96,-77.45 247.02,-57.27 233.24,-41.78"/>
<polygon fill="#555555" stroke="#555555" points="234.86,-39.9 228.38,-36.3 231.2,-43.16 234.86,-39.9"/>
<text text-anchor="middle" x="262" y="-61.2" font-family="Helvetica,sans-Serif" font-weight="bold" font-size="11.00" fill="#1f5fcc">0</text>
</g>
<!-- ud1 -->
<g id="node15" class="node">
<title>ud1</title>
<polygon fill="#dedede" stroke="#808080" points="319,-36 265,-36 265,0 319,0 319,-36"/>
<text text-anchor="middle" x="292" y="-15.2" font-family="Helvetica,sans-Serif" font-size="11.00">data</text>
</g>
<!-- up0&#45;&gt;ud1 -->
<g id="edge18" class="edge">
<title>up0&#45;&gt;ud1</title>
<path fill="none" stroke="#555555" d="M292.81,-91.65C292.66,-77.95 292.44,-58.68 292.27,-43.42"/>
<polygon fill="#555555" stroke="#555555" points="294.72,-43.27 292.19,-36.3 289.82,-43.33 294.72,-43.27"/>
<text text-anchor="middle" x="297" y="-61.2" font-family="Helvetica,sans-Serif" font-weight="bold" font-size="11.00" fill="#1f5fcc">1</text>
</g>
<!-- amounts -->
<g id="node18" class="node">
<title>amounts</title>
<path fill="#fce6a8" stroke="#c9a227" d="M395.5,-36C395.5,-36 356.5,-36 356.5,-36 350.5,-36 344.5,-30 344.5,-24 344.5,-24 344.5,-12 344.5,-12 344.5,-6 350.5,0 356.5,0 356.5,0 395.5,0 395.5,0 401.5,0 407.5,-6 407.5,-12 407.5,-12 407.5,-24 407.5,-24 407.5,-30 401.5,-36 395.5,-36"/>
<text text-anchor="middle" x="376" y="-15.2" font-family="Helvetica,sans-Serif" font-size="11.00">amounts</text>
</g>
<!-- ux0&#45;&gt;amounts -->
<g id="edge21" class="edge">
<title>ux0&#45;&gt;amounts</title>
<path fill="none" stroke="#555555" d="M455.1,-91.65C439.51,-77.33 417.28,-56.91 400.36,-41.37"/>
<polygon fill="#555555" stroke="#555555" points="401.65,-39.23 394.84,-36.3 398.34,-42.84 401.65,-39.23"/>
<text text-anchor="middle" x="435" y="-61.2" font-family="Helvetica,sans-Serif" font-weight="bold" font-size="11.00" fill="#1f5fcc">0</text>
</g>
<!-- idxval -->
<g id="node19" class="node">
<title>idxval</title>
<path fill="#fce6a8" stroke="#c9a227" d="M505,-36C505,-36 445,-36 445,-36 439,-36 433,-30 433,-24 433,-24 433,-12 433,-12 433,-6 439,0 445,0 445,0 505,0 505,0 511,0 517,-6 517,-12 517,-12 517,-24 517,-24 517,-30 511,-36 505,-36"/>
<text text-anchor="middle" x="475" y="-15.2" font-family="Helvetica,sans-Serif" font-size="11.00">index&#45;values</text>
</g>
<!-- ux0&#45;&gt;idxval -->
<g id="edge22" class="edge">
<title>ux0&#45;&gt;idxval</title>
<path fill="none" stroke="#555555" d="M474.19,-91.65C474.34,-77.95 474.56,-58.68 474.73,-43.42"/>
<polygon fill="#555555" stroke="#555555" points="477.18,-43.33 474.81,-36.3 472.28,-43.27 477.18,-43.33"/>
<text text-anchor="middle" x="479" y="-61.2" font-family="Helvetica,sans-Serif" font-weight="bold" font-size="11.00" fill="#1f5fcc">1</text>
</g>
<!-- lock -->
<g id="node20" class="node">
<title>lock</title>
<polygon fill="#dedede" stroke="#808080" points="596,-36 542,-36 542,0 596,0 596,-36"/>
<text text-anchor="middle" x="569" y="-15.2" font-family="Helvetica,sans-Serif" font-size="11.00">lock</text>
</g>
<!-- ux0&#45;&gt;lock -->
<g id="edge23" class="edge">
<title>ux0&#45;&gt;lock</title>
<path fill="none" stroke="#555555" d="M492.32,-91.65C507.43,-77.33 528.98,-56.91 545.39,-41.37"/>
<polygon fill="#555555" stroke="#555555" points="547.34,-42.89 550.74,-36.3 543.97,-39.34 547.34,-42.89"/>
<text text-anchor="middle" x="532" y="-61.2" font-family="Helvetica,sans-Serif" font-weight="bold" font-size="11.00" fill="#1f5fcc">2</text>
</g>
<!-- cstr -->
<g id="node21" class="node">
<title>cstr</title>
<polygon fill="#dedede" stroke="#808080" points="691,-36 621,-36 621,0 691,0 691,-36"/>
<text text-anchor="middle" x="656" y="-15.2" font-family="Helvetica,sans-Serif" font-size="11.00">constraint</text>
</g>
<!-- ux0&#45;&gt;cstr -->
<g id="edge24" class="edge">
<title>ux0&#45;&gt;cstr</title>
<path fill="none" stroke="#555555" d="M501.25,-95.53C531.4,-80.62 580.32,-56.42 615.08,-39.23"/>
<polygon fill="#555555" stroke="#555555" points="616.21,-41.41 621.4,-36.11 614.04,-37.02 616.21,-41.41"/>
<text text-anchor="middle" x="584.5" y="-61.2" font-family="Helvetica,sans-Serif" font-weight="bold" font-size="11.00" fill="#1f5fcc">3+</text>
</g>
</g>
</svg>
